<?xml version="1.0" standalone="no"?>
<!DOCTYPE svg PUBLIC "-//W3C//DTD SVG 20010904//EN"
 "http://www.w3.org/TR/2001/REC-SVG-20010904/DTD/svg10.dtd">
<svg version="1.0" xmlns="http://www.w3.org/2000/svg"
 width="179.000000pt" height="179.000000pt" viewBox="0 0 179.000000 179.000000"
 preserveAspectRatio="xMidYMid meet">
<metadata>
Created by potrace 1.11, written by Peter Selinger 2001-2013
</metadata>
<g transform="translate(0.000000,179.000000) scale(0.100000,-0.100000)"
fill="#000000" stroke="none">
<path d="M1035 1724 c-105 -29 -275 -88 -275 -95 0 -5 8 -35 19 -67 10 -31 29
-91 41 -132 28 -93 27 -92 48 -81 9 5 58 22 107 36 140 42 155 48 155 64 0 16
-42 158 -68 232 -10 25 -21 45 -27 43z"/>
<path d="M1138 1345 c-5 -6 -94 -33 -200 -62 -32 -8 -58 -19 -58 -24 0 -5 12
-48 26 -96 15 -49 35 -117 44 -153 10 -36 29 -99 43 -140 13 -41 33 -106 45
-145 11 -38 37 -124 57 -190 38 -125 46 -152 90 -300 15 -50 28 -96 30 -102 3
-9 11 -10 27 -4 13 5 64 21 113 36 149 44 155 46 155 54 0 4 -16 63 -36 132
-20 68 -44 151 -54 184 -9 33 -19 67 -22 75 -3 8 -16 49 -28 90 -12 41 -31
102 -41 135 -10 33 -34 114 -54 180 -20 66 -44 147 -55 180 -10 33 -22 76 -25
95 -10 50 -37 75 -57 55z"/>
<path d="M840 1064 c-219 -72 -376 -189 -444 -332 -29 -62 -31 -75 -31 -173 0
-62 5 -112 11 -120 6 -8 17 -36 23 -64 43 -175 195 -309 382 -335 72 -10 231
2 254 19 5 5 35 14 65 21 93 21 91 18 61 105 l-26 75 -83 0 c-68 0 -91 4 -131
25 -86 43 -152 149 -180 290 -10 50 -10 70 3 117 8 31 20 66 26 78 19 36 81
100 112 116 15 8 28 22 28 32 0 23 -42 152 -49 151 -3 0 -13 -3 -21 -5z"/>
</g>
</svg>
